<svg width="110" height="37" viewBox="0 0 110 37" fill="none" xmlns="http://www.w3.org/2000/svg">
<g clip-path="url(#clip0_21_353)">
<path opacity="0.14" d="M103.758 21.228C99.23 18.6133 93.8091 17.8528 88.5818 18.1626C83.3545 18.4724 78.2452 19.7962 73.1926 21.1247C73.8105 19.804 73.9803 18.3196 73.6762 16.8948C73.3722 15.4699 72.6109 14.1818 71.5068 13.2243C70.3594 12.3194 68.9471 11.8099 67.483 11.7726C66.0188 11.7354 64.5822 12.1724 63.3897 13.0177C61.2175 7.51138 57.9404 1.5497 52.1701 0.240006C47.8352 -0.74109 43.2312 1.40887 40.2847 4.69484C37.3381 7.98081 35.7893 12.2995 34.7457 16.59C33.3668 15.342 31.6674 14.4977 29.8355 14.1505C28.0037 13.8033 26.111 13.9667 24.3669 14.6227C22.6227 15.2788 21.0952 16.4018 19.9534 17.8675C18.8116 19.3332 18.1 21.0844 17.8975 22.9273C15.3145 20.4675 12.2783 18.1438 8.74617 17.7589C4.298 17.2754 0.610085 20.7491 0.0670499 24.988C-0.542094 29.7621 3.22137 34.4939 7.27289 36.5593C7.57982 36.7189 7.89148 36.8645 8.2173 37.0006H102.323C104.08 36.3816 105.875 35.8736 107.697 35.4797C108.009 35.2069 108.298 34.9086 108.561 34.5878C110.265 32.4988 110.383 29.4241 109.297 26.9455C108.211 24.467 106.101 22.5799 103.758 21.228Z" fill="url(#paint0_linear_21_353)"/>
</g>
<defs>
<linearGradient id="paint0_linear_21_353" x1="0.000941307" y1="18.5006" x2="110.001" y2="18.5006" gradientUnits="userSpaceOnUse">
<stop stop-color="#81CCE3"/>
<stop offset="0.23" stop-color="#68C1D7"/>
<stop offset="0.72" stop-color="#27A4B9"/>
<stop offset="1" stop-color="#0093A7"/>
</linearGradient>
<clipPath id="clip0_21_353">
<rect width="110" height="37" fill="white"/>
</clipPath>
</defs>
</svg>
