<svg width="91" height="30" viewBox="0 0 91 30" fill="none" xmlns="http://www.w3.org/2000/svg">
<g clip-path="url(#clip0_21_341)">
<path opacity="0.14" d="M85.8368 17.2121C82.0906 15.092 77.606 14.4755 73.2816 14.7267C68.9572 14.9779 64.7305 16.0512 60.5506 17.1283C61.0618 16.0575 61.2022 14.8539 60.9507 13.6987C60.6992 12.5434 60.0694 11.499 59.156 10.7226C58.2068 9.98889 57.0384 9.57578 55.8272 9.54557C54.6159 9.51536 53.4274 9.86969 52.4409 10.5551C50.6439 6.09053 47.9329 1.25673 43.1592 0.194813C39.5731 -0.60067 35.7644 1.14254 33.3268 3.80684C30.8892 6.47114 29.6079 9.97279 28.7445 13.4516C27.6038 12.4397 26.1979 11.7551 24.6825 11.4736C23.1671 11.192 21.6013 11.3246 20.1584 11.8565C18.7155 12.3884 17.4518 13.299 16.5072 14.4874C15.5627 15.6758 14.974 17.0957 14.8064 18.5899C12.6696 16.5955 10.1578 14.7114 7.2358 14.3993C3.55596 14.0073 0.505044 16.8238 0.0558059 20.2608C-0.448122 24.1316 2.66529 27.9682 6.017 29.6429C6.27092 29.7723 6.52874 29.8903 6.79828 30.0007H84.6493C86.103 29.4988 87.5878 29.0869 89.0948 28.7675C89.3534 28.5464 89.5926 28.3045 89.8097 28.0443C91.2199 26.3506 91.3176 23.8576 90.4191 21.8479C89.5206 19.8383 87.7744 18.3082 85.8368 17.2121Z" fill="url(#paint0_linear_21_341)"/>
</g>
<defs>
<linearGradient id="paint0_linear_21_341" x1="0.00111608" y1="15.0007" x2="91.0011" y2="15.0007" gradientUnits="userSpaceOnUse">
<stop stop-color="#81CCE3"/>
<stop offset="0.23" stop-color="#68C1D7"/>
<stop offset="0.72" stop-color="#27A4B9"/>
<stop offset="1" stop-color="#0093A7"/>
</linearGradient>
<clipPath id="clip0_21_341">
<rect width="91" height="30" fill="white"/>
</clipPath>
</defs>
</svg>
