<svg width="187" height="68" viewBox="0 0 187 68" fill="none" xmlns="http://www.w3.org/2000/svg">
<g clip-path="url(#clip0_21_345)">
<path opacity="0.14" d="M192.423 39.0126C184.025 34.2072 173.972 32.8096 164.277 33.379C154.583 33.9484 145.108 36.3813 135.737 38.8228C136.883 36.3956 137.198 33.6675 136.634 31.0489C136.07 28.4303 134.659 26.0629 132.611 24.3031C130.483 22.6401 127.864 21.7037 125.149 21.6352C122.433 21.5667 119.769 22.3699 117.557 23.9235C113.529 13.8038 107.451 2.84715 96.7501 0.440146C88.711 -1.36295 80.1727 2.58833 74.7081 8.62741C69.2436 14.6665 66.3712 22.6036 64.4359 30.4889C61.8786 28.1952 58.7269 26.6435 55.3297 26.0053C51.9325 25.3672 48.4224 25.6676 45.1878 26.8733C41.9532 28.079 39.1203 30.1429 37.0028 32.8366C34.8853 35.5303 33.5657 38.7488 33.19 42.1357C28.3998 37.615 22.7689 33.3445 16.2185 32.6371C7.96917 31.7485 1.12976 38.1326 0.122678 45.923C-1.00701 54.6969 5.97252 63.3932 13.4862 67.1892C14.0555 67.4825 14.6334 67.75 15.2377 68.0002H189.761C193.02 66.8625 196.348 65.9289 199.727 65.2049C200.306 64.7037 200.842 64.1553 201.329 63.5658C204.491 59.7266 204.709 54.0758 202.695 49.5206C200.681 44.9654 196.767 41.4972 192.423 39.0126Z" fill="url(#paint0_linear_21_345)"/>
</g>
<defs>
<linearGradient id="paint0_linear_21_345" x1="7.66627e-05" y1="34.0002" x2="204" y2="34.0002" gradientUnits="userSpaceOnUse">
<stop stop-color="#81CCE3"/>
<stop offset="0.23" stop-color="#68C1D7"/>
<stop offset="0.72" stop-color="#27A4B9"/>
<stop offset="1" stop-color="#0093A7"/>
</linearGradient>
<clipPath id="clip0_21_345">
<rect width="204" height="68" fill="white"/>
</clipPath>
</defs>
</svg>
