<svg width="1600" height="789" viewBox="0 0 1600 789" fill="none" xmlns="http://www.w3.org/2000/svg">
<g clip-path="url(#clip0_23_409)">
<path opacity="0.14" d="M702.956 34.423C695.669 30.183 686.946 28.9498 678.535 29.4522C670.124 29.9546 661.902 32.1013 653.772 34.2555C654.767 32.1139 655.04 29.7067 654.551 27.3962C654.061 25.0857 652.836 22.9968 651.06 21.4441C649.214 19.9766 646.941 19.1504 644.585 19.09C642.229 19.0296 639.917 19.7383 637.999 21.1091C634.503 12.1799 629.23 2.51232 619.945 0.388497C612.97 -1.20247 605.562 2.28395 600.821 7.61255C596.079 12.9411 593.587 19.9444 591.908 26.9021C589.689 24.8783 586.954 23.5091 584.007 22.946C581.059 22.383 578.014 22.648 575.207 23.7119C572.401 24.7757 569.943 26.5968 568.106 28.9736C566.268 31.3504 565.123 34.1902 564.797 37.1787C560.641 33.1898 555.756 29.4217 550.072 28.7975C542.915 28.0135 536.98 33.6466 536.107 40.5204C535.127 48.2621 541.182 55.9353 547.702 59.2847C548.195 59.5435 548.697 59.7795 549.221 60.0003H700.646C703.473 58.9964 706.361 58.1727 709.292 57.5339C709.795 57.0916 710.261 56.6078 710.683 56.0876C713.426 52.7001 713.616 47.7141 711.868 43.6948C710.121 39.6755 706.724 36.6153 702.956 34.423Z" fill="url(#paint0_linear_23_409)"/>
</g>
<g clip-path="url(#clip1_23_409)">
<path opacity="0.14" d="M1186.84 51.2121C1183.09 49.092 1178.61 48.4755 1174.28 48.7267C1169.96 48.9779 1165.73 50.0512 1161.55 51.1283C1162.06 50.0575 1162.2 48.8539 1161.95 47.6987C1161.7 46.5434 1161.07 45.499 1160.16 44.7226C1159.21 43.9889 1158.04 43.5758 1156.83 43.5456C1155.62 43.5154 1154.43 43.8697 1153.44 44.5551C1151.64 40.0905 1148.93 35.2567 1144.16 34.1948C1140.57 33.3993 1136.76 35.1425 1134.33 37.8068C1131.89 40.4711 1130.61 43.9728 1129.74 47.4516C1128.6 46.4397 1127.2 45.7551 1125.68 45.4736C1124.17 45.192 1122.6 45.3246 1121.16 45.8565C1119.72 46.3884 1118.45 47.299 1117.51 48.4874C1116.56 49.6758 1115.97 51.0957 1115.81 52.5899C1113.67 50.5955 1111.16 48.7114 1108.24 48.3993C1104.56 48.0073 1101.51 50.8238 1101.06 54.2608C1100.55 58.1316 1103.67 61.9682 1107.02 63.6429C1107.27 63.7723 1107.53 63.8903 1107.8 64.0007H1185.65C1187.1 63.4988 1188.59 63.0869 1190.09 62.7675C1190.35 62.5464 1190.59 62.3045 1190.81 62.0443C1192.22 60.3506 1192.32 57.8576 1191.42 55.8479C1190.52 53.8383 1188.77 52.3082 1186.84 51.2121Z" fill="url(#paint1_linear_23_409)"/>
</g>
<g clip-path="url(#clip2_23_409)">
<path d="M1543.45 630.404C1551.47 612.284 1573.22 604.442 1584.26 587.992C1599 566.017 1590 535.248 1572.99 515.42C1555.97 495.591 1532.46 482.786 1512.86 465.579C1493.26 448.373 1476.69 423.3 1481.42 397.26C1485.2 376.347 1502.98 359.312 1523.37 354.005C1543.76 348.699 1565.93 354.169 1583.17 366.077C1612.67 386.444 1627.12 422.356 1637.94 456.847C1644.59 478.01 1650.75 499.93 1660 519.922V736H1569.49C1562.56 717.792 1555.63 699.584 1548.7 681.376C1542.47 665.043 1536.27 646.541 1543.45 630.404Z" fill="url(#paint2_linear_23_409)"/>
<path d="M1543.53 420.506L1547.55 416.769C1649.72 528.093 1648.54 661.797 1639.87 736H1634.41C1643 662.741 1644.39 530.449 1543.53 420.506Z" fill="white"/>
<path d="M1642.11 702.203L1574.93 635.094L1578.79 631.153L1640.88 693.198C1646.34 683.295 1653.28 670.763 1660 658.551V669.827C1651.62 685.02 1644.58 697.755 1643.87 699.035L1642.11 702.203Z" fill="white"/>
<path d="M1615.62 527.671L1611.81 449.926L1617.27 449.582L1621.82 542.865L1554.36 467.514L1558.43 463.784L1615.62 527.671Z" fill="white"/>
<path d="M1557.79 717.646C1544.24 723.202 1497.11 740.893 1502.19 715.906C1506.59 694.236 1537.17 704.911 1552.57 711.817C1540.69 698.103 1529.51 683.797 1519.08 668.953C1501.37 678.551 1434.95 712.231 1438.49 675.117C1441.78 640.743 1494.54 656.077 1515.18 663.412C1509.43 655.25 1503.82 647.025 1498.27 638.925C1492.81 630.997 1487.42 623.068 1481.88 615.218C1479.1 611.254 1476.23 607.246 1473.3 603.193C1459.13 618.34 1407.76 670.162 1399.43 633.923C1391.44 599.042 1449.84 598.16 1470.13 598.878C1457.28 581.507 1442.92 563.887 1426.61 548.07C1414.91 560.742 1359.91 617.934 1351.31 580.329C1343.07 544.378 1405.39 544.542 1423.78 545.362C1411.46 533.568 1397.85 523.206 1383.2 514.476C1378.65 511.807 1374.01 509.388 1369.32 507.203C1360.79 520.469 1333.66 559.541 1323.69 536.45C1314.75 515.732 1346.53 507.273 1362.85 504.355C1346.57 497.525 1329.23 493.565 1311.61 492.649C1306.79 503.73 1291.32 536.06 1281.13 519.961C1272.83 506.93 1290.64 497.355 1302.89 492.579C1289.03 492.731 1275.31 495.39 1262.4 500.429C1252.38 509.794 1232.27 526.181 1229.27 510.621C1226.34 495.404 1248.24 494.015 1260.36 494.374C1274.37 488.98 1289.26 486.216 1304.27 486.219C1291.84 478.041 1269.68 461.303 1285.04 454.584C1301.64 447.311 1308.8 475.092 1310.97 486.344C1330.56 487.247 1349.82 491.744 1367.78 499.61C1359.35 484.627 1338.85 444.354 1363.2 446.617C1388.53 448.958 1376.46 489.388 1372.26 501.631C1377.04 503.871 1381.78 506.313 1386.41 509.052C1401.19 517.855 1414.95 528.28 1427.42 540.133C1424.11 517.886 1416.13 448.178 1448.95 464.526C1482.76 481.358 1442.39 531.011 1431.21 543.746C1447.22 559.306 1461.37 576.521 1474.04 593.54C1470.62 569.521 1463.86 503.886 1495.85 519.774C1529.67 536.622 1489.27 586.283 1478.1 599.01C1481.22 603.256 1484.23 607.467 1487.13 611.644C1492.66 619.51 1498.06 627.462 1503.52 635.414C1508.98 643.365 1514.44 651.372 1520.04 659.339C1516.6 635.265 1509.93 569.818 1541.89 585.713C1575.77 602.584 1535.15 652.402 1524.07 665.02C1535.53 681.079 1547.56 696.858 1560.74 711.474C1558.64 696.53 1553.27 647.189 1576.11 658.832C1599.73 670.888 1570.33 705.769 1562.98 713.932C1566.46 717.717 1570 721.423 1573.69 725.021C1577.12 728.392 1581.16 732.122 1585.67 736H1576.12C1573.78 733.885 1571.5 731.739 1569.23 729.508C1565.31 725.653 1561.5 721.699 1557.79 717.646Z" fill="#2F296C"/>
<path d="M1610.73 707.408C1622.11 713.089 1617.47 725.824 1611.12 736H1598.06C1596.87 721.017 1597.45 700.767 1610.73 707.408Z" fill="#2F296C"/>
<path d="M1325.32 671.832C1357.53 651.216 1402.65 642.288 1440.72 651.653C1478.18 660.845 1504.32 685.207 1528.52 708.485L1557.1 735.992H1273.87C1282.06 711.45 1299.6 688.329 1325.32 671.832Z" fill="url(#paint3_linear_23_409)"/>
<path d="M1365.8 694.298C1377.4 687.587 1390.92 684.934 1405.96 686.417C1451.56 690.888 1497.25 716.413 1526.41 736H1517C1488.18 717.319 1446 694.852 1404.89 690.818C1391.4 689.499 1379.38 691.84 1369.1 697.787C1354.43 706.261 1344.79 721.072 1338.31 736.023H1332.35C1339.16 719.948 1349.54 703.702 1365.8 694.298Z" fill="white"/>
</g>
<path d="M1155.41 402.573H1131.04V582.269H1155.41V402.573Z" fill="url(#paint4_linear_23_409)"/>
<path d="M1226.29 287.658H1191.96V585.934H1226.29V287.658Z" fill="url(#paint5_linear_23_409)"/>
<path d="M1255.38 566.37H1101.93C1092.01 566.37 1083.96 574.423 1083.96 584.357V589.947C1083.96 599.88 1092.01 607.934 1101.93 607.934H1255.38C1265.3 607.934 1273.35 599.88 1273.35 589.947V584.357C1273.35 574.423 1265.3 566.37 1255.38 566.37Z" fill="#241D50"/>
<path d="M1079.56 442.908H1277.76C1278.49 442.908 1279.22 443.052 1279.89 443.331C1280.57 443.611 1281.18 444.022 1281.7 444.539C1282.21 445.056 1282.62 445.669 1282.9 446.345C1283.18 447.021 1283.33 447.744 1283.33 448.476V458.133C1283.33 459.606 1282.74 461.02 1281.7 462.062C1280.66 463.104 1279.25 463.689 1277.77 463.689H1079.55C1078.08 463.689 1076.67 463.104 1075.63 462.062C1074.59 461.02 1074 459.606 1074 458.133V448.476C1074 447.744 1074.14 447.021 1074.42 446.345C1074.7 445.669 1075.11 445.056 1075.63 444.539C1076.15 444.022 1076.76 443.611 1077.43 443.331C1078.11 443.052 1078.83 442.908 1079.56 442.908Z" fill="url(#paint6_linear_23_409)"/>
<path d="M1258.23 275H1160.97C1155.71 275 1151.45 279.265 1151.45 284.526V287.473C1151.45 292.735 1155.71 297 1160.97 297H1258.23C1263.48 297 1267.74 292.735 1267.74 287.473V284.526C1267.74 279.265 1263.48 275 1258.23 275Z" fill="#241D50"/>
<path d="M1165.77 388.24C1165.79 393.135 1164.49 397.944 1162 402.16H1123.4C1120.92 397.942 1119.62 393.134 1119.63 388.24C1119.63 374.179 1129.95 362.771 1142.7 362.771C1155.44 362.771 1165.77 374.179 1165.77 388.24Z" fill="#353063"/>
<path d="M1168.45 340.76H1115.59C1112.95 340.76 1110.33 341.282 1107.89 342.295C1105.45 343.308 1103.23 344.793 1101.37 346.665C1099.5 348.537 1098.02 350.759 1097.02 353.203C1096.01 355.647 1095.49 358.267 1095.5 360.911V384.27C1095.5 389.603 1097.62 394.718 1101.38 398.489C1105.15 402.259 1110.26 404.378 1115.59 404.378H1168.45C1173.78 404.378 1178.89 402.259 1182.66 398.489C1186.43 394.718 1188.54 389.603 1188.54 384.27V360.911C1188.55 358.267 1188.03 355.647 1187.03 353.203C1186.02 350.759 1184.54 348.537 1182.68 346.665C1180.81 344.793 1178.59 343.308 1176.15 342.295C1173.71 341.282 1171.1 340.76 1168.45 340.76ZM1162 402.16H1123.4C1120.92 397.942 1119.62 393.134 1119.63 388.24C1119.63 374.179 1129.95 362.771 1142.7 362.771C1155.44 362.771 1165.77 374.179 1165.77 388.24C1165.79 393.135 1164.49 397.944 1162 402.16Z" fill="#241D50"/>
<path d="M1355.4 548.668C1356.37 545.457 1354.4 528.301 1315.58 520.378C1276.75 512.455 1233.26 506.472 1205.08 511.297C1172.22 516.983 1169.23 544.14 1173.21 555.459C1177.2 566.777 1345.44 581.458 1355.4 548.668Z" fill="url(#paint7_linear_23_409)"/>
<path d="M1218.28 531.564C1248.85 537.204 1296.3 561.257 1330.84 544.405C1376.88 521.934 1369.72 591.492 1349.25 602.195C1328.78 612.898 1197.73 615.671 1181.44 604.333C1166.09 593.63 1163.71 555.287 1175.28 536.912C1183.57 523.8 1211.03 530.227 1218.28 531.564Z" fill="url(#paint8_linear_23_409)"/>
<path d="M1282.79 500.336C1264.44 501.891 1229.61 506.624 1229.61 506.624C1221.69 507.372 1226.63 529.572 1248.14 539.97C1269.64 550.369 1304.57 555.234 1315.75 535.019C1326.92 514.805 1301.13 498.774 1282.79 500.336Z" fill="white"/>
<path d="M1305.01 589.07C1285.17 583.874 1316.18 559.735 1319.18 536.78C1322.17 513.825 1306.39 517.856 1306.39 517.856C1319.49 533.669 1288.69 558.775 1280.02 574.376C1271.36 589.977 1295.29 604.399 1310.47 604.558C1325.66 604.717 1324.86 594.266 1305.01 589.07Z" fill="white"/>
<path d="M1229.98 572.125C1240.11 577.751 1231.63 547.139 1244.72 541.493C1254.17 537.409 1245.65 525.197 1245.65 525.197C1245.65 525.197 1206.83 559.258 1229.98 572.125Z" fill="white"/>
<path fill-rule="evenodd" clip-rule="evenodd" d="M1249.24 490.189C1249.31 489.865 1244.58 480.969 1242.17 476.461C1242.02 476.197 1241.82 475.974 1241.56 475.815C1241.31 475.656 1241.02 475.566 1240.72 475.554C1240.42 475.542 1240.12 475.608 1239.86 475.747C1239.59 475.885 1239.36 476.09 1239.2 476.342L1228.87 492.228C1225.66 493.26 1214.58 497.271 1210.97 505.605C1210.02 504.943 1203.23 506.108 1199.32 506.836C1199.02 506.891 1198.75 507.019 1198.52 507.21C1198.29 507.401 1198.12 507.647 1198.01 507.925C1197.9 508.204 1197.86 508.505 1197.91 508.801C1197.95 509.097 1198.06 509.377 1198.24 509.616L1205.42 519.319C1205.42 519.319 1204.92 520.524 1208.51 525.369C1211.6 529.552 1216.43 533.312 1231.67 531.67C1244.37 529.029 1272.35 508.649 1249.24 490.189Z" fill="white"/>
<path d="M1237.96 512.72C1237.9 512.711 1237.83 512.716 1237.77 512.733C1237.71 512.75 1237.65 512.779 1237.6 512.819C1237.55 512.858 1237.51 512.907 1237.48 512.963C1237.45 513.019 1237.43 513.08 1237.43 513.144C1237.43 513.183 1236.98 517.115 1235 517.962C1234.13 518.34 1233.01 518.081 1231.77 517.188C1231.67 517.077 1231.52 517.006 1231.37 516.989C1231.27 516.984 1231.17 517.012 1231.08 517.069C1230.99 517.126 1230.93 517.208 1230.89 517.306C1230.86 517.402 1230.85 517.508 1230.88 517.607C1230.91 517.707 1230.97 517.793 1231.05 517.856L1231.16 517.929C1231.41 518.22 1231.97 519.299 1231.68 519.955C1231.44 520.497 1230.53 520.703 1229.1 520.524C1228.97 520.509 1228.85 520.544 1228.75 520.622C1228.65 520.701 1228.58 520.814 1228.56 520.941C1228.55 521.068 1228.58 521.196 1228.66 521.297C1228.74 521.398 1228.85 521.466 1228.98 521.484C1229.53 521.545 1230.08 521.545 1230.63 521.484C1230.97 521.473 1231.3 521.392 1231.6 521.245C1231.9 521.097 1232.17 520.888 1232.38 520.63C1232.56 520.35 1232.67 520.033 1232.71 519.703C1232.75 519.373 1232.72 519.038 1232.61 518.723C1233.04 518.931 1233.51 519.046 1233.99 519.06C1234.47 519.075 1234.94 518.99 1235.39 518.809C1237.87 517.704 1238.36 513.402 1238.38 513.216C1238.39 513.095 1238.35 512.977 1238.27 512.884C1238.19 512.792 1238.08 512.733 1237.96 512.72Z" fill="#2A2460"/>
<path fill-rule="evenodd" clip-rule="evenodd" d="M1229.3 514.606C1229.21 514.606 1233.11 508.808 1231.12 517.459C1231.12 517.426 1222.71 516.063 1229.3 514.606Z" fill="url(#paint9_linear_23_409)"/>
<path opacity="0.43" fill-rule="evenodd" clip-rule="evenodd" d="M1245.11 507.736C1253.04 497.741 1262.1 495.822 1262.72 495.736C1252.73 495.411 1245.11 507.736 1245.11 507.736Z" fill="#2A2460"/>
<path opacity="0.43" fill-rule="evenodd" clip-rule="evenodd" d="M1245.81 508.457C1255.92 501.653 1264.76 502.54 1265.35 502.659C1256.26 499.442 1245.81 508.457 1245.81 508.457Z" fill="#2A2460"/>
<path opacity="0.43" fill-rule="evenodd" clip-rule="evenodd" d="M1209.76 533.007C1209.7 533.007 1212.77 526.931 1221.48 523.43C1221.51 523.43 1211.6 526.104 1209.76 533.007Z" fill="#2A2460"/>
<path opacity="0.43" fill-rule="evenodd" clip-rule="evenodd" d="M1213.92 536.231C1213.87 536.27 1214.9 529.777 1221.84 524.058C1221.82 524.058 1213.58 529.347 1213.92 536.231Z" fill="#2A2460"/>
<path opacity="0.13" fill-rule="evenodd" clip-rule="evenodd" d="M1240.87 480.042C1238.44 480.32 1234.77 489.838 1234.77 489.838C1238.04 488.847 1241.53 488.847 1244.8 489.838C1244.8 489.838 1243.3 479.771 1240.87 480.042Z" fill="#2A2460"/>
<path opacity="0.13" fill-rule="evenodd" clip-rule="evenodd" d="M1202.89 509.172C1201.48 510.092 1206.11 514.309 1206.11 514.309C1206.11 514.309 1206.77 510.066 1209.64 508.603C1209.62 508.603 1204.3 508.259 1202.89 509.172Z" fill="#2A2460"/>
<path fill-rule="evenodd" clip-rule="evenodd" d="M918.404 482.796V483.041C918.428 483.004 918.439 482.962 918.439 482.918C918.439 482.875 918.428 482.832 918.404 482.796Z" fill="#241D50"/>
<path fill-rule="evenodd" clip-rule="evenodd" d="M918.384 483.041C917.123 484.927 885.156 479.427 885.156 479.427C885.156 479.427 867.604 509.801 882.442 542.307C892.611 563.487 901.149 577.308 899.895 601.163C890.247 603.148 891.046 610.125 897.141 609.847C898.283 609.847 903.85 609.946 904.636 609.88C912.078 609.218 907.277 578.771 905.54 569.253C905.171 567.492 905.019 566.426 905.019 566.426C905.019 566.426 905.223 567.479 905.54 569.253C907.02 576.255 911.965 594.345 924.69 600.964C923.746 600.441 918.813 600.772 915.445 602.347C909.06 605.326 904.695 610.833 918.602 609.847C935.929 610.244 952.616 609.814 952.616 609.814C952.616 609.814 998.509 585.171 959.027 544.703C939.059 524.237 913.9 535.787 918.384 483.041Z" fill="#241D50"/>
<path fill-rule="evenodd" clip-rule="evenodd" d="M905.541 569.279C905.224 567.505 905.02 566.453 905.02 566.453C905.02 566.453 905.171 567.518 905.541 569.279Z" fill="#241D50"/>
<path d="M1003.98 493.168C982.614 499.787 976.38 531.703 972.207 577.619C971.612 584.119 968.608 603.77 948.164 608.98C948.237 609.145 948.303 609.304 948.369 609.469C976.73 612.117 988.986 585.482 990.729 562.124C993.892 527.341 998.29 504.142 1017.05 510.165C1025.21 513.786 1029.57 485.655 1003.98 493.168Z" fill="#2A2460"/>
<path fill-rule="evenodd" clip-rule="evenodd" d="M939.891 457.531C934.384 458.16 924.842 459.411 923.825 460.655C915.618 450.992 899.188 450.164 894.467 450.138L874.202 433.101C873.882 432.83 873.498 432.647 873.086 432.571C872.675 432.495 872.252 432.528 871.857 432.666C871.462 432.805 871.11 433.044 870.835 433.36C870.561 433.676 870.374 434.06 870.292 434.471C868.906 441.474 866.198 455.287 866.423 455.698C843.093 489.759 888.749 505.578 906.749 503.923C927.781 499.892 932.7 492.896 935.144 486.052C937.963 478.109 936.814 476.706 936.814 476.706L942.46 460.821C942.603 460.428 942.643 460.005 942.578 459.593C942.512 459.18 942.343 458.791 942.086 458.462C941.829 458.133 941.493 457.875 941.109 457.712C940.725 457.549 940.306 457.487 939.891 457.531Z" fill="#2A2460"/>
<path d="M905.672 487.978C903.843 488.806 902.535 488.905 901.994 488.276C901.333 487.522 901.657 485.854 901.875 485.357L901.981 485.218C902.07 485.102 902.118 484.96 902.118 484.814C902.118 484.668 902.07 484.527 901.981 484.411C901.898 484.287 901.776 484.195 901.635 484.149C901.493 484.104 901.341 484.107 901.201 484.159C901.009 484.249 900.851 484.4 900.752 484.589C899.432 486.304 898.065 487.091 896.79 486.939C893.759 486.602 891.56 481.578 891.56 481.512C891.525 481.43 891.475 481.357 891.413 481.295C891.349 481.233 891.275 481.184 891.193 481.152C891.111 481.118 891.024 481.102 890.935 481.103C890.847 481.104 890.76 481.122 890.679 481.158C890.598 481.192 890.524 481.243 890.463 481.306C890.401 481.369 890.353 481.444 890.32 481.526C890.287 481.608 890.271 481.696 890.272 481.784C890.273 481.872 890.291 481.96 890.326 482.041C890.425 482.279 892.835 487.826 896.605 488.283C897.268 488.344 897.937 488.266 898.569 488.052C899.2 487.839 899.78 487.496 900.27 487.045C900.258 487.508 900.349 487.968 900.536 488.392C900.723 488.816 901.003 489.192 901.353 489.494C901.746 489.751 902.189 489.922 902.651 489.996C903.114 490.07 903.588 490.045 904.041 489.924C904.795 489.767 905.528 489.523 906.226 489.196C906.308 489.162 906.382 489.111 906.444 489.047C906.505 488.984 906.554 488.908 906.586 488.826C906.618 488.743 906.633 488.654 906.63 488.565C906.627 488.477 906.607 488.39 906.57 488.309C906.534 488.227 906.483 488.152 906.417 488.091C906.353 488.029 906.275 487.982 906.191 487.951C906.108 487.919 906.018 487.906 905.929 487.911C905.839 487.915 905.752 487.939 905.672 487.978Z" fill="white"/>
<path fill-rule="evenodd" clip-rule="evenodd" d="M902.985 480.115C903.117 480.115 895.543 473.926 901.717 484.662C901.717 484.662 912.395 479.413 902.985 480.115Z" fill="url(#paint10_linear_23_409)"/>
<path fill-rule="evenodd" clip-rule="evenodd" d="M850.699 468.598C851.544 468.433 864.408 467.327 879.094 477.441C879.094 477.441 863.919 464.117 850.699 468.598Z" fill="white"/>
<path fill-rule="evenodd" clip-rule="evenodd" d="M850 478.924C850.726 478.52 862.183 473.721 878.447 478.692C878.447 478.692 860.829 470.921 850 478.924Z" fill="white"/>
<path fill-rule="evenodd" clip-rule="evenodd" d="M917.037 488.753C930.092 489.871 936.675 496.768 936.576 496.762C931.347 488.283 917.037 488.753 917.037 488.753Z" fill="white"/>
<path fill-rule="evenodd" clip-rule="evenodd" d="M916.832 489.732C928.408 494.538 932.422 502.798 932.337 502.765C929.999 493.426 916.832 489.732 916.832 489.732Z" fill="white"/>
<path opacity="0.21" fill-rule="evenodd" clip-rule="evenodd" d="M873.515 438.713C870.154 439.342 872.234 453.408 872.234 453.408C876.196 450.75 880.852 449.323 885.619 449.304C885.619 449.304 876.87 438.091 873.515 438.713Z" fill="white"/>
<path opacity="0.21" fill-rule="evenodd" clip-rule="evenodd" d="M936.075 462.118C933.823 461.456 926.83 464.104 926.83 464.104C931.248 464.885 933.856 470.292 933.856 470.292C933.856 470.292 938.333 462.767 936.075 462.118Z" fill="white"/>
<path d="M1061.74 608.668C1055.73 608.668 1049.6 606.828 1044.34 604.916L1042.45 604.221C1034.1 601.143 1025.46 597.966 1017.2 600.143C1014.52 600.95 1011.93 602.03 1009.46 603.367C1007.91 604.141 1006.31 604.935 1004.67 605.611C1000.71 607.226 995.015 608.569 990.234 605.822C990.094 605.743 989.971 605.636 989.872 605.509C989.774 605.382 989.701 605.236 989.658 605.08C989.616 604.925 989.605 604.763 989.625 604.602C989.645 604.442 989.697 604.288 989.777 604.148C989.857 604.008 989.963 603.886 990.091 603.787C990.218 603.688 990.364 603.616 990.519 603.575C990.675 603.533 990.837 603.522 990.997 603.543C991.156 603.564 991.31 603.617 991.449 603.698C995.583 606.074 1000.92 604.492 1003.74 603.34C1005.3 602.678 1006.86 601.924 1008.37 601.176C1010.98 599.763 1013.73 598.624 1016.57 597.774C1025.58 595.397 1034.58 598.714 1043.29 601.924L1045.17 602.586C1053.38 605.577 1063.83 608.397 1071.92 603.631C1072.06 603.536 1072.21 603.471 1072.38 603.439C1072.54 603.407 1072.71 603.41 1072.88 603.447C1073.04 603.483 1073.2 603.554 1073.33 603.653C1073.47 603.753 1073.58 603.879 1073.67 604.025C1073.75 604.17 1073.81 604.331 1073.83 604.499C1073.85 604.666 1073.84 604.836 1073.79 604.998C1073.74 605.16 1073.66 605.31 1073.55 605.439C1073.44 605.568 1073.31 605.674 1073.16 605.75C1069.69 607.739 1065.74 608.747 1061.74 608.668Z" fill="url(#paint11_linear_23_409)"/>
<path d="M1090.05 601.868C1099.64 592.255 1099.64 576.669 1090.05 567.056C1080.46 557.443 1064.91 557.443 1055.32 567.056C1045.73 576.669 1045.73 592.255 1055.32 601.868C1064.91 611.482 1080.46 611.482 1090.05 601.868Z" fill="url(#paint12_linear_23_409)"/>
<path d="M675.523 582.841C675.523 582.841 711.776 569.921 763.235 581.948C710.349 600.295 679.525 582.907 675.523 582.841Z" fill="url(#paint13_linear_23_409)"/>
<path d="M670.993 607.934H769.574C770.18 607.226 770.59 606.37 770.76 605.454C770.93 604.536 770.856 603.59 770.545 602.711L763.235 581.948C763.235 581.948 735.732 591.102 675.523 582.841L669.078 602.036C668.726 603.095 668.721 604.24 669.066 605.301C669.411 606.363 670.086 607.286 670.993 607.934Z" fill="url(#paint14_linear_23_409)"/>
<path opacity="0.42" d="M1291.85 645H936.554C935.421 644.996 934.336 644.542 933.535 643.736C932.735 642.93 932.283 641.837 932.279 640.698C932.283 639.558 932.735 638.466 933.535 637.66C934.336 636.853 935.421 636.399 936.554 636.395H1291.85C1292.99 636.399 1294.07 636.854 1294.87 637.66C1295.67 638.466 1296.12 639.558 1296.12 640.698C1296.12 641.837 1295.67 642.93 1294.87 643.735C1294.07 644.541 1292.99 644.996 1291.85 645Z" fill="url(#paint15_linear_23_409)"/>
<path d="M1443.38 616.538H618.619C617.413 616.55 616.251 616.072 615.386 615.207C614.521 614.342 614.023 613.159 614 611.918C614.016 610.671 614.512 609.483 615.378 608.612C616.243 607.741 617.409 607.259 618.619 607.272H1443.38C1444.59 607.263 1445.75 607.746 1446.61 608.617C1447.48 609.487 1447.97 610.674 1447.99 611.918C1447.96 613.157 1447.47 614.337 1446.61 615.201C1445.74 616.067 1444.59 616.547 1443.38 616.538Z" fill="url(#paint16_linear_23_409)"/>
<g clip-path="url(#clip3_23_409)">
<g opacity="0.35">
<path opacity="0.35" d="M164.162 477.507C198.588 470.809 209.241 418.082 243.989 413.314C258.812 411.275 273.555 419.478 283.243 430.842C292.931 442.207 298.584 456.41 304.04 470.323C309.897 485.154 315.762 500.471 314.922 516.337C314.081 532.203 304.519 548.775 289.069 552.508C274.553 556.021 257.084 548.218 245.41 557.519C235.691 565.252 236.484 580.515 241.571 591.84C246.659 603.165 255.043 613.015 258.317 624.991C260.16 631.737 260.276 638.837 258.653 645.638C257.03 652.44 253.72 658.725 249.029 663.914C244.338 669.103 238.416 673.031 231.807 675.335C225.199 677.639 218.117 678.245 211.212 677.099C205.073 676.079 198.91 673.687 192.818 674.942C182.776 677.005 177.194 688.228 176.637 698.47C176.08 708.713 178.992 718.862 178.906 729.057C178.662 754.578 158.58 777.314 134.29 785.22C109.999 793.125 82.843 787.988 60.2562 776.067C37.6693 764.146 19.0236 745.99 1.99514 726.963C-21.8086 700.361 -43.9322 669.632 -47.6692 634.167C-51.4062 598.702 -30.311 558.508 4.87641 552.39C22.9333 549.253 44.633 554.178 57.4063 541.018C74.2699 523.662 59.7616 490.04 77.0334 473.013C87.8362 462.355 105.626 464.159 120.064 468.833C134.502 473.507 149.261 480.448 164.162 477.507Z" fill="url(#paint17_linear_23_409)"/>
<path opacity="0.35" d="M251.502 480.087C249.932 482.205 112.786 667.954 -85 747.59L-82.7311 753.621C116.939 673.24 255.161 486.017 256.723 483.875L251.502 480.087Z" fill="white"/>
<path opacity="0.35" d="M218.801 614.223L122.221 618.671L122.518 625.111L219.098 620.663L218.801 614.223Z" fill="white"/>
<path opacity="0.35" d="M111.511 524.923L75.0801 654.833L81.2942 656.572L117.725 526.662L111.511 524.923Z" fill="white"/>
<path opacity="0.35" d="M143.797 715.121L32.2446 692.165L26.592 583.173L20.1465 583.511L26.0582 697.474L142.486 721.434L143.797 715.121Z" fill="white"/>
</g>
</g>
<g clip-path="url(#clip4_23_409)">
<path opacity="0.14" d="M1605.42 108.013C1597.02 103.207 1586.97 101.81 1577.28 102.379C1567.58 102.948 1558.11 105.381 1548.74 107.823C1549.88 105.396 1550.2 102.667 1549.63 100.049C1549.07 97.4303 1547.66 95.0629 1545.61 93.3031C1543.48 91.6401 1540.86 90.7037 1538.15 90.6352C1535.43 90.5667 1532.77 91.3699 1530.56 92.9235C1526.53 82.8038 1520.45 71.8471 1509.75 69.4401C1501.71 67.637 1493.17 71.5883 1487.71 77.6274C1482.24 83.6665 1479.37 91.6036 1477.44 99.4889C1474.88 97.1952 1471.73 95.6435 1468.33 95.0053C1464.93 94.3672 1461.42 94.6676 1458.19 95.8733C1454.95 97.079 1452.12 99.1429 1450 101.837C1447.89 104.53 1446.57 107.749 1446.19 111.136C1441.4 106.615 1435.77 102.344 1429.22 101.637C1420.97 100.748 1414.13 107.133 1413.12 114.923C1411.99 123.697 1418.97 132.393 1426.49 136.189C1427.06 136.483 1427.63 136.75 1428.24 137H1602.76C1606.02 135.862 1609.35 134.929 1612.73 134.205C1613.31 133.704 1613.84 133.155 1614.33 132.566C1617.49 128.727 1617.71 123.076 1615.7 118.521C1613.68 113.965 1609.77 110.497 1605.42 108.013Z" fill="url(#paint18_linear_23_409)"/>
</g>
<g clip-path="url(#clip5_23_409)">
<path opacity="0.14" d="M1040.76 77.228C1036.23 74.6133 1030.81 73.8528 1025.58 74.1626C1020.35 74.4724 1015.25 75.7962 1010.19 77.1247C1010.81 75.804 1010.98 74.3196 1010.68 72.8948C1010.37 71.4699 1009.61 70.1818 1008.51 69.2243C1007.36 68.3194 1005.95 67.8099 1004.48 67.7726C1003.02 67.7354 1001.58 68.1724 1000.39 69.0177C998.218 63.5114 994.94 57.5497 989.17 56.24C984.835 55.2589 980.231 57.4089 977.285 60.6948C974.338 63.9808 972.789 68.2995 971.746 72.59C970.367 71.342 968.667 70.4977 966.836 70.1505C965.004 69.8033 963.111 69.9667 961.367 70.6227C959.623 71.2788 958.095 72.4018 956.953 73.8675C955.812 75.3332 955.1 77.0844 954.897 78.9273C952.315 76.4675 949.278 74.1438 945.746 73.7589C941.298 73.2754 937.61 76.7491 937.067 80.988C936.458 85.7621 940.221 90.4939 944.273 92.5593C944.58 92.7189 944.891 92.8645 945.217 93.0006H1039.32C1041.08 92.3816 1042.87 91.8736 1044.7 91.4797C1045.01 91.2069 1045.3 90.9086 1045.56 90.5878C1047.27 88.4988 1047.38 85.4241 1046.3 82.9455C1045.21 80.467 1043.1 78.5799 1040.76 77.228Z" fill="url(#paint19_linear_23_409)"/>
</g>
<defs>
<linearGradient id="paint0_linear_23_409" x1="536" y1="30.0003" x2="713" y2="30.0003" gradientUnits="userSpaceOnUse">
<stop stop-color="#81CCE3"/>
<stop offset="0.23" stop-color="#68C1D7"/>
<stop offset="0.72" stop-color="#27A4B9"/>
<stop offset="1" stop-color="#0093A7"/>
</linearGradient>
<linearGradient id="paint1_linear_23_409" x1="1101" y1="49.0007" x2="1192" y2="49.0007" gradientUnits="userSpaceOnUse">
<stop stop-color="#81CCE3"/>
<stop offset="0.23" stop-color="#68C1D7"/>
<stop offset="0.72" stop-color="#27A4B9"/>
<stop offset="1" stop-color="#0093A7"/>
</linearGradient>
<linearGradient id="paint2_linear_23_409" x1="1687.55" y1="544.004" x2="1480.6" y2="544.004" gradientUnits="userSpaceOnUse">
<stop stop-color="#82CDE4"/>
<stop offset="0.23" stop-color="#69C2D8"/>
<stop offset="0.72" stop-color="#28A6BA"/>
<stop offset="1" stop-color="#0094A7"/>
</linearGradient>
<linearGradient id="paint3_linear_23_409" x1="1558.41" y1="691.981" x2="1273.39" y2="691.981" gradientUnits="userSpaceOnUse">
<stop stop-color="#E71A80"/>
<stop offset="1" stop-color="#EC6588"/>
</linearGradient>
<linearGradient id="paint4_linear_23_409" x1="1131.04" y1="492.421" x2="1155.41" y2="492.421" gradientUnits="userSpaceOnUse">
<stop stop-color="#82CDE4"/>
<stop offset="0.23" stop-color="#69C2D8"/>
<stop offset="0.72" stop-color="#28A6BA"/>
<stop offset="1" stop-color="#0094A7"/>
</linearGradient>
<linearGradient id="paint5_linear_23_409" x1="1192.2" y1="465.957" x2="1226.54" y2="465.957" gradientUnits="userSpaceOnUse">
<stop stop-color="#7BCBE2"/>
<stop offset="1" stop-color="#0096AB"/>
</linearGradient>
<linearGradient id="paint6_linear_23_409" x1="1074" y1="443.122" x2="1283.33" y2="443.122" gradientUnits="userSpaceOnUse">
<stop stop-color="#80CDE4"/>
<stop offset="1" stop-color="#0095A9"/>
</linearGradient>
<linearGradient id="paint7_linear_23_409" x1="1171.84" y1="539.156" x2="1355.57" y2="539.156" gradientUnits="userSpaceOnUse">
<stop stop-color="#E71A80"/>
<stop offset="1" stop-color="#EC6588"/>
</linearGradient>
<linearGradient id="paint8_linear_23_409" x1="1168.02" y1="570.219" x2="1365.17" y2="570.219" gradientUnits="userSpaceOnUse">
<stop stop-color="#EC6588"/>
<stop offset="1" stop-color="#E71A80"/>
</linearGradient>
<linearGradient id="paint9_linear_23_409" x1="-9597.41" y1="2521.67" x2="-9636.06" y2="2533.33" gradientUnits="userSpaceOnUse">
<stop stop-color="#EC6588"/>
<stop offset="1" stop-color="#E71A80"/>
</linearGradient>
<linearGradient id="paint10_linear_23_409" x1="899.294" y1="481.498" x2="906.861" y2="481.498" gradientUnits="userSpaceOnUse">
<stop stop-color="#EC6588"/>
<stop offset="1" stop-color="#E71A80"/>
</linearGradient>
<linearGradient id="paint11_linear_23_409" x1="18802.8" y1="3608.7" x2="29536.2" y2="3608.7" gradientUnits="userSpaceOnUse">
<stop stop-color="#EC6588"/>
<stop offset="1" stop-color="#E71A80"/>
</linearGradient>
<linearGradient id="paint12_linear_23_409" x1="1048.13" y1="584.462" x2="1097.24" y2="584.462" gradientUnits="userSpaceOnUse">
<stop stop-color="#E71A80"/>
<stop offset="1" stop-color="#EC6588"/>
</linearGradient>
<linearGradient id="paint13_linear_23_409" x1="675.508" y1="582.877" x2="763.168" y2="584.626" gradientUnits="userSpaceOnUse">
<stop stop-color="#82CDE4"/>
<stop offset="0.23" stop-color="#69C2D8"/>
<stop offset="0.72" stop-color="#28A6BA"/>
<stop offset="1" stop-color="#0094A7"/>
</linearGradient>
<linearGradient id="paint14_linear_23_409" x1="668.929" y1="594.115" x2="770.964" y2="596.15" gradientUnits="userSpaceOnUse">
<stop stop-color="#0094A7"/>
<stop offset="0.28" stop-color="#28A6BA"/>
<stop offset="0.77" stop-color="#69C2D8"/>
<stop offset="1" stop-color="#82CDE4"/>
</linearGradient>
<linearGradient id="paint15_linear_23_409" x1="932.279" y1="640.698" x2="1296.12" y2="640.698" gradientUnits="userSpaceOnUse">
<stop stop-color="#EC6588"/>
<stop offset="1" stop-color="#E71A80"/>
</linearGradient>
<linearGradient id="paint16_linear_23_409" x1="614" y1="611.907" x2="1448" y2="611.907" gradientUnits="userSpaceOnUse">
<stop stop-color="#A775B0"/>
<stop offset="1" stop-color="#7E468E"/>
</linearGradient>
<linearGradient id="paint17_linear_23_409" x1="202.405" y1="755.192" x2="92.3803" y2="459.395" gradientUnits="userSpaceOnUse">
<stop stop-color="#F9C8C3"/>
<stop offset="1" stop-color="#FCE4E2"/>
</linearGradient>
<linearGradient id="paint18_linear_23_409" x1="1413" y1="103" x2="1617" y2="103" gradientUnits="userSpaceOnUse">
<stop stop-color="#81CCE3"/>
<stop offset="0.23" stop-color="#68C1D7"/>
<stop offset="0.72" stop-color="#27A4B9"/>
<stop offset="1" stop-color="#0093A7"/>
</linearGradient>
<linearGradient id="paint19_linear_23_409" x1="937.001" y1="74.5006" x2="1047" y2="74.5006" gradientUnits="userSpaceOnUse">
<stop stop-color="#81CCE3"/>
<stop offset="0.23" stop-color="#68C1D7"/>
<stop offset="0.72" stop-color="#27A4B9"/>
<stop offset="1" stop-color="#0093A7"/>
</linearGradient>
<clipPath id="clip0_23_409">
<rect width="177" height="60" fill="white" transform="translate(536)"/>
</clipPath>
<clipPath id="clip1_23_409">
<rect width="91" height="30" fill="white" transform="translate(1101 34)"/>
</clipPath>
<clipPath id="clip2_23_409">
<rect width="431" height="384" fill="white" transform="translate(1229 352)"/>
</clipPath>
<clipPath id="clip3_23_409">
<rect width="400" height="376" fill="white" transform="translate(-85 413)"/>
</clipPath>
<clipPath id="clip4_23_409">
<rect width="204" height="68" fill="white" transform="translate(1413 69)"/>
</clipPath>
<clipPath id="clip5_23_409">
<rect width="110" height="37" fill="white" transform="translate(937 56)"/>
</clipPath>
</defs>
</svg>
